<?xml version="1.0" encoding="UTF-8" standalone="no"?>
<!DOCTYPE svg PUBLIC "-//W3C//DTD SVG 1.1//EN"
 "http://www.w3.org/Graphics/SVG/1.1/DTD/svg11.dtd">
<!-- Generated by graphviz version 12.2.1 (20241206.2353)
 -->
<!-- Title: G Pages: 1 -->
<svg width="1631pt" height="1433pt"
 viewBox="0.00 0.00 1631.25 1433.00" xmlns="http://www.w3.org/2000/svg" xmlns:xlink="http://www.w3.org/1999/xlink">
<g id="graph0" class="graph" transform="scale(1 1) rotate(0) translate(4 1429)">
<title>G</title>
<polygon fill="white" stroke="none" points="-4,4 -4,-1429 1627.25,-1429 1627.25,4 -4,4"/>
<g id="clust2" class="cluster">
<title>cluster_5cf0c8e7</title>
<polygon fill="none" stroke="black" stroke-dasharray="1,5" points="1203.88,-201 1203.88,-332 1382.88,-332 1382.88,-201 1203.88,-201"/>
<text text-anchor="middle" x="1293.38" y="-314.7" font-family="Times New Roman,serif" font-size="14.00">File: libs</text>
</g>
<g id="clust3" class="cluster">
<title>cluster_817b09d9</title>
<polygon fill="none" stroke="black" stroke-dasharray="1,5" points="84,-316 84,-393 534,-393 534,-316 84,-316"/>
<text text-anchor="middle" x="309" y="-375.7" font-family="Times New Roman,serif" font-size="14.00">File: main</text>
</g>
<g id="clust4" class="cluster">
<title>cluster_f03abe3e</title>
<polygon fill="none" stroke="black" stroke-dasharray="1,5" points="692.25,-908 692.25,-1417 1454.5,-1417 1454.5,-908 692.25,-908"/>
<text text-anchor="middle" x="1073.38" y="-1399.7" font-family="Times New Roman,serif" font-size="14.00">File: malware_check</text>
</g>
<g id="clust5" class="cluster">
<title>cluster_0221e527</title>
<polygon fill="none" stroke="black" stroke-dasharray="1,5" points="892.38,-8 892.38,-193 1615.25,-193 1615.25,-8 892.38,-8"/>
<text text-anchor="middle" x="1253.81" y="-175.7" font-family="Times New Roman,serif" font-size="14.00">File: mongodbfunctions</text>
</g>
<g id="clust6" class="cluster">
<title>cluster_ffe7f42f</title>
<polygon fill="none" stroke="black" stroke-dasharray="1,5" points="862,-201 862,-278 1110,-278 1110,-201 862,-201"/>
<text text-anchor="middle" x="986" y="-260.7" font-family="Times New Roman,serif" font-size="14.00">File: powershell_attack_cor</text>
</g>
<g id="clust7" class="cluster">
<title>cluster_9aae83d8</title>
<polygon fill="none" stroke="black" stroke-dasharray="1,5" points="554,-587 554,-900 1403.88,-900 1403.88,-587 554,-587"/>
<text text-anchor="middle" x="978.94" y="-882.7" font-family="Times New Roman,serif" font-size="14.00">File: rdpcheck</text>
</g>
<g id="clust8" class="cluster">
<title>cluster_925d806f</title>
<polygon fill="none" stroke="black" stroke-dasharray="1,5" points="1166,-340 1166,-579 1420.75,-579 1420.75,-340 1166,-340"/>
<text text-anchor="middle" x="1293.38" y="-561.7" font-family="Times New Roman,serif" font-size="14.00">File: utils</text>
</g>
<g id="clust9" class="cluster">
<title>cluster_5a213f34</title>
<polygon fill="none" stroke="black" stroke-dasharray="1,5" points="859.75,-316 859.75,-393 1112.25,-393 1112.25,-316 859.75,-316"/>
<text text-anchor="middle" x="986" y="-375.7" font-family="Times New Roman,serif" font-size="14.00">File: windows_firewall_attack</text>
</g>
<!-- Legend -->
<g id="node1" class="node">
<title>Legend</title>
<polygon fill="none" stroke="black" points="1,-286.75 1,-305.25 265,-305.25 265,-286.75 1,-286.75"/>
<text text-anchor="start" x="80.88" y="-290.95" font-family="Times New Roman,serif" font-size="14.00">Code2flow Legend</text>
<polygon fill="none" stroke="black" points="1,-192.75 1,-286.75 265,-286.75 265,-192.75 1,-192.75"/>
<polygon fill="none" stroke="black" points="3,-262.25 3,-284.75 213,-284.75 213,-262.25 3,-262.25"/>
<text text-anchor="start" x="62.25" y="-268.45" font-family="Times New Roman,serif" font-size="14.00">Regular function</text>
<polygon fill="#cccccc" stroke="none" points="213,-262.25 213,-284.75 263,-284.75 263,-262.25 213,-262.25"/>
<polygon fill="none" stroke="black" points="213,-262.25 213,-284.75 263,-284.75 263,-262.25 213,-262.25"/>
<polygon fill="none" stroke="black" points="3,-239.75 3,-262.25 213,-262.25 213,-239.75 3,-239.75"/>
<text text-anchor="start" x="14.25" y="-245.95" font-family="Times New Roman,serif" font-size="14.00">Trunk function (nothing calls this)</text>
<polygon fill="#966f33" stroke="none" points="213,-239.75 213,-262.25 263,-262.25 263,-239.75 213,-239.75"/>
<polygon fill="none" stroke="black" points="213,-239.75 213,-262.25 263,-262.25 263,-239.75 213,-239.75"/>
<polygon fill="none" stroke="black" points="3,-217.25 3,-239.75 213,-239.75 213,-217.25 3,-217.25"/>
<text text-anchor="start" x="6" y="-223.45" font-family="Times New Roman,serif" font-size="14.00">Leaf function (this calls nothing else)</text>
<polygon fill="#6db33f" stroke="none" points="213,-217.25 213,-239.75 263,-239.75 263,-217.25 213,-217.25"/>
<polygon fill="none" stroke="black" points="213,-217.25 213,-239.75 263,-239.75 263,-217.25 213,-217.25"/>
<polygon fill="none" stroke="black" points="3,-194.75 3,-217.25 213,-217.25 213,-194.75 3,-194.75"/>
<text text-anchor="start" x="72.38" y="-200.95" font-family="Times New Roman,serif" font-size="14.00">Function call</text>
<polygon fill="none" stroke="black" points="213,-194.75 213,-217.25 263,-217.25 263,-194.75 213,-194.75"/>
<text text-anchor="start" x="230.88" y="-200.95" font-family="Times New Roman,serif" font-size="14.00">→</text>
<polygon fill="none" stroke="black" points="2,-193.75 2,-285.75 264,-285.75 264,-193.75 2,-193.75"/>
<polygon fill="none" stroke="black" points="0,-191.75 0,-306.25 266,-306.25 266,-191.75 0,-191.75"/>
</g>
<!-- node_2b9f6b7d -->
<g id="node2" class="node">
<title>node_2b9f6b7d</title>
<path fill="#6db33f" stroke="black" d="M1362.88,-245C1362.88,-245 1223.88,-245 1223.88,-245 1217.88,-245 1211.88,-239 1211.88,-233 1211.88,-233 1211.88,-221 1211.88,-221 1211.88,-215 1217.88,-209 1223.88,-209 1223.88,-209 1362.88,-209 1362.88,-209 1368.88,-209 1374.88,-215 1374.88,-221 1374.88,-221 1374.88,-233 1374.88,-233 1374.88,-239 1368.88,-245 1362.88,-245"/>
<text text-anchor="middle" x="1293.38" y="-221.95" font-family="Times New Roman,serif" font-size="14.00">5: fromMongoToSparkdf()</text>
</g>
<!-- node_7d957c5d -->
<g id="node3" class="node">
<title>node_7d957c5d</title>
<path fill="#6db33f" stroke="black" d="M1352.75,-299C1352.75,-299 1234,-299 1234,-299 1228,-299 1222,-293 1222,-287 1222,-287 1222,-275 1222,-275 1222,-269 1228,-263 1234,-263 1234,-263 1352.75,-263 1352.75,-263 1358.75,-263 1364.75,-269 1364.75,-275 1364.75,-275 1364.75,-287 1364.75,-287 1364.75,-293 1358.75,-299 1352.75,-299"/>
<text text-anchor="middle" x="1293.38" y="-275.95" font-family="Times New Roman,serif" font-size="14.00">11: job_id_create_list()</text>
</g>
<!-- node_b7b2de37 -->
<g id="node4" class="node">
<title>node_b7b2de37</title>
<path fill="#966f33" stroke="black" d="M162,-360C162,-360 104,-360 104,-360 98,-360 92,-354 92,-348 92,-348 92,-336 92,-336 92,-330 98,-324 104,-324 104,-324 162,-324 162,-324 168,-324 174,-330 174,-336 174,-336 174,-348 174,-348 174,-354 168,-360 162,-360"/>
<text text-anchor="middle" x="133" y="-336.95" font-family="Times New Roman,serif" font-size="14.00">0: (global)()</text>
</g>
<!-- node_cbf1296c -->
<g id="node5" class="node">
<title>node_cbf1296c</title>
<path fill="#cccccc" stroke="black" d="M355.5,-360C355.5,-360 314,-360 314,-360 308,-360 302,-354 302,-348 302,-348 302,-336 302,-336 302,-330 308,-324 314,-324 314,-324 355.5,-324 355.5,-324 361.5,-324 367.5,-330 367.5,-336 367.5,-336 367.5,-348 367.5,-348 367.5,-354 361.5,-360 355.5,-360"/>
<text text-anchor="middle" x="334.75" y="-336.95" font-family="Times New Roman,serif" font-size="14.00">50: app()</text>
</g>
<!-- node_b7b2de37&#45;&gt;node_cbf1296c -->
<g id="edge1" class="edge">
<title>node_b7b2de37&#45;&gt;node_cbf1296c</title>
<path fill="none" stroke="#cc79a7" stroke-width="2" d="M174.31,-342C174.31,-342 288.79,-342 288.79,-342"/>
<polygon fill="#cc79a7" stroke="#cc79a7" stroke-width="2" points="288.79,-345.5 298.79,-342 288.79,-338.5 288.79,-345.5"/>
</g>
<!-- node_cbf1296c&#45;&gt;node_2b9f6b7d -->
<g id="edge2" class="edge">
<title>node_cbf1296c&#45;&gt;node_2b9f6b7d</title>
<path fill="none" stroke="#f0e442" stroke-width="2" d="M345.25,-323.63C345.25,-318.9 345.25,-315.12 345.25,-315.12 345.25,-315.12 1217.25,-315.12 1217.25,-315.12 1217.25,-315.12 1217.25,-258.29 1217.25,-258.29"/>
<polygon fill="#f0e442" stroke="#f0e442" stroke-width="2" points="1220.75,-258.29 1217.25,-248.29 1213.75,-258.29 1220.75,-258.29"/>
</g>
<!-- node_6851c14f -->
<g id="node6" class="node">
<title>node_6851c14f</title>
<path fill="#cccccc" stroke="black" d="M514,-360C514,-360 415.5,-360 415.5,-360 409.5,-360 403.5,-354 403.5,-348 403.5,-348 403.5,-336 403.5,-336 403.5,-330 409.5,-324 415.5,-324 415.5,-324 514,-324 514,-324 520,-324 526,-330 526,-336 526,-336 526,-348 526,-348 526,-354 520,-360 514,-360"/>
<text text-anchor="middle" x="464.75" y="-336.95" font-family="Times New Roman,serif" font-size="14.00">75: coreFunctions()</text>
</g>
<!-- node_cbf1296c&#45;&gt;node_6851c14f -->
<g id="edge3" class="edge">
<title>node_cbf1296c&#45;&gt;node_6851c14f</title>
<path fill="none" stroke="#f0e442" stroke-width="2" d="M367.89,-342C367.89,-342 390.07,-342 390.07,-342"/>
<polygon fill="#f0e442" stroke="#f0e442" stroke-width="2" points="390.07,-345.5 400.07,-342 390.07,-338.5 390.07,-345.5"/>
</g>
<!-- node_e867c03a -->
<g id="node22" class="node">
<title>node_e867c03a</title>
<path fill="#cccccc" stroke="black" d="M1338.88,-106C1338.88,-106 1247.88,-106 1247.88,-106 1241.88,-106 1235.88,-100 1235.88,-94 1235.88,-94 1235.88,-82 1235.88,-82 1235.88,-76 1241.88,-70 1247.88,-70 1247.88,-70 1338.88,-70 1338.88,-70 1344.88,-70 1350.88,-76 1350.88,-82 1350.88,-82 1350.88,-94 1350.88,-94 1350.88,-100 1344.88,-106 1338.88,-106"/>
<text text-anchor="middle" x="1293.38" y="-82.95" font-family="Times New Roman,serif" font-size="14.00">12: viewAllData()</text>
</g>
<!-- node_cbf1296c&#45;&gt;node_e867c03a -->
<g id="edge4" class="edge">
<title>node_cbf1296c&#45;&gt;node_e867c03a</title>
<path fill="none" stroke="#f0e442" stroke-width="2" d="M324.25,-323.73C324.25,-265.49 324.25,-88 324.25,-88 324.25,-88 1222.63,-88 1222.63,-88"/>
<polygon fill="#f0e442" stroke="#f0e442" stroke-width="2" points="1222.63,-91.5 1232.63,-88 1222.63,-84.5 1222.63,-91.5"/>
</g>
<!-- node_f5eeaa82 -->
<g id="node7" class="node">
<title>node_f5eeaa82</title>
<path fill="#cccccc" stroke="black" d="M819.75,-1033C819.75,-1033 712.25,-1033 712.25,-1033 706.25,-1033 700.25,-1027 700.25,-1021 700.25,-1021 700.25,-1009 700.25,-1009 700.25,-1003 706.25,-997 712.25,-997 712.25,-997 819.75,-997 819.75,-997 825.75,-997 831.75,-1003 831.75,-1009 831.75,-1009 831.75,-1021 831.75,-1021 831.75,-1027 825.75,-1033 819.75,-1033"/>
<text text-anchor="middle" x="766" y="-1009.95" font-family="Times New Roman,serif" font-size="14.00">201: checkmalware()</text>
</g>
<!-- node_6851c14f&#45;&gt;node_f5eeaa82 -->
<g id="edge5" class="edge">
<title>node_6851c14f&#45;&gt;node_f5eeaa82</title>
<path fill="none" stroke="#cc79a7" stroke-width="2" d="M526.2,-342C600.94,-342 717.25,-342 717.25,-342 717.25,-342 717.25,-983.62 717.25,-983.62"/>
<polygon fill="#cc79a7" stroke="#cc79a7" stroke-width="2" points="713.75,-983.62 717.25,-993.62 720.75,-983.62 713.75,-983.62"/>
</g>
<!-- node_3ece0837 -->
<g id="node23" class="node">
<title>node_3ece0837</title>
<path fill="#cccccc" stroke="black" d="M1090,-245C1090,-245 882,-245 882,-245 876,-245 870,-239 870,-233 870,-233 870,-221 870,-221 870,-215 876,-209 882,-209 882,-209 1090,-209 1090,-209 1096,-209 1102,-215 1102,-221 1102,-221 1102,-233 1102,-233 1102,-239 1096,-245 1090,-245"/>
<text text-anchor="middle" x="986" y="-221.95" font-family="Times New Roman,serif" font-size="14.00">32: correlate_execution_policy_attack()</text>
</g>
<!-- node_6851c14f&#45;&gt;node_3ece0837 -->
<g id="edge6" class="edge">
<title>node_6851c14f&#45;&gt;node_3ece0837</title>
<path fill="none" stroke="#cc79a7" stroke-width="2" d="M464.25,-323.52C464.25,-291.02 464.25,-227 464.25,-227 464.25,-227 856.53,-227 856.53,-227"/>
<polygon fill="#cc79a7" stroke="#cc79a7" stroke-width="2" points="856.53,-230.5 866.53,-227 856.53,-223.5 856.53,-230.5"/>
</g>
<!-- node_5b8cb523 -->
<g id="node24" class="node">
<title>node_5b8cb523</title>
<path fill="#cccccc" stroke="black" d="M652.25,-649C652.25,-649 574,-649 574,-649 568,-649 562,-643 562,-637 562,-637 562,-625 562,-625 562,-619 568,-613 574,-613 574,-613 652.25,-613 652.25,-613 658.25,-613 664.25,-619 664.25,-625 664.25,-625 664.25,-637 664.25,-637 664.25,-643 658.25,-649 652.25,-649"/>
<text text-anchor="middle" x="613.12" y="-625.95" font-family="Times New Roman,serif" font-size="14.00">166: checkrdp()</text>
</g>
<!-- node_6851c14f&#45;&gt;node_5b8cb523 -->
<g id="edge7" class="edge">
<title>node_6851c14f&#45;&gt;node_5b8cb523</title>
<path fill="none" stroke="#cc79a7" stroke-width="2" d="M526.44,-351C567.24,-351 613.25,-351 613.25,-351 613.25,-351 613.25,-599.6 613.25,-599.6"/>
<polygon fill="#cc79a7" stroke="#cc79a7" stroke-width="2" points="609.75,-599.6 613.25,-609.6 616.75,-599.6 609.75,-599.6"/>
</g>
<!-- node_c47b9aec -->
<g id="node37" class="node">
<title>node_c47b9aec</title>
<path fill="#cccccc" stroke="black" d="M1092.25,-360C1092.25,-360 879.75,-360 879.75,-360 873.75,-360 867.75,-354 867.75,-348 867.75,-348 867.75,-336 867.75,-336 867.75,-330 873.75,-324 879.75,-324 879.75,-324 1092.25,-324 1092.25,-324 1098.25,-324 1104.25,-330 1104.25,-336 1104.25,-336 1104.25,-348 1104.25,-348 1104.25,-354 1098.25,-360 1092.25,-360"/>
<text text-anchor="middle" x="986" y="-336.95" font-family="Times New Roman,serif" font-size="14.00">32: correlate_windows_firewall_attack()</text>
</g>
<!-- node_6851c14f&#45;&gt;node_c47b9aec -->
<g id="edge8" class="edge">
<title>node_6851c14f&#45;&gt;node_c47b9aec</title>
<path fill="none" stroke="#cc79a7" stroke-width="2" d="M526.33,-333C526.33,-333 854.29,-333 854.29,-333"/>
<polygon fill="#cc79a7" stroke="#cc79a7" stroke-width="2" points="854.29,-336.5 864.29,-333 854.29,-329.5 854.29,-336.5"/>
</g>
<!-- node_14335198 -->
<g id="node8" class="node">
<title>node_14335198</title>
<path fill="#cccccc" stroke="black" d="M1038.62,-1114C1038.62,-1114 933.38,-1114 933.38,-1114 927.38,-1114 921.38,-1108 921.38,-1102 921.38,-1102 921.38,-1090 921.38,-1090 921.38,-1084 927.38,-1078 933.38,-1078 933.38,-1078 1038.62,-1078 1038.62,-1078 1044.62,-1078 1050.62,-1084 1050.62,-1090 1050.62,-1090 1050.62,-1102 1050.62,-1102 1050.62,-1108 1044.62,-1114 1038.62,-1114"/>
<text text-anchor="middle" x="986" y="-1090.95" font-family="Times New Roman,serif" font-size="14.00">186: correlate_logs()</text>
</g>
<!-- node_f5eeaa82&#45;&gt;node_14335198 -->
<g id="edge9" class="edge">
<title>node_f5eeaa82&#45;&gt;node_14335198</title>
<path fill="none" stroke="#56b4e9" stroke-width="2" d="M832.02,-1028.5C885.93,-1028.5 953.25,-1028.5 953.25,-1028.5 953.25,-1028.5 953.25,-1064.53 953.25,-1064.53"/>
<polygon fill="#56b4e9" stroke="#56b4e9" stroke-width="2" points="949.75,-1064.53 953.25,-1074.53 956.75,-1064.53 949.75,-1064.53"/>
</g>
<!-- node_3035d180 -->
<g id="node9" class="node">
<title>node_3035d180</title>
<path fill="#6db33f" stroke="black" d="M1434.5,-1006C1434.5,-1006 1152.25,-1006 1152.25,-1006 1146.25,-1006 1140.25,-1000 1140.25,-994 1140.25,-994 1140.25,-982 1140.25,-982 1140.25,-976 1146.25,-970 1152.25,-970 1152.25,-970 1434.5,-970 1434.5,-970 1440.5,-970 1446.5,-976 1446.5,-982 1446.5,-982 1446.5,-994 1446.5,-994 1446.5,-1000 1440.5,-1006 1434.5,-1006"/>
<text text-anchor="middle" x="1293.38" y="-982.95" font-family="Times New Roman,serif" font-size="14.00">175: detect_attempt_to_duplicate_handle_to_object()</text>
</g>
<!-- node_14335198&#45;&gt;node_3035d180 -->
<g id="edge10" class="edge">
<title>node_14335198&#45;&gt;node_3035d180</title>
<path fill="none" stroke="#000000" stroke-width="2" d="M1051.11,-1096C1102.03,-1096 1164.25,-1096 1164.25,-1096 1164.25,-1096 1164.25,-1019.35 1164.25,-1019.35"/>
<polygon fill="#000000" stroke="#000000" stroke-width="2" points="1167.75,-1019.35 1164.25,-1009.35 1160.75,-1019.35 1167.75,-1019.35"/>
</g>
<!-- node_07d21986 -->
<g id="node10" class="node">
<title>node_07d21986</title>
<path fill="#6db33f" stroke="black" d="M1374.5,-1060C1374.5,-1060 1212.25,-1060 1212.25,-1060 1206.25,-1060 1200.25,-1054 1200.25,-1048 1200.25,-1048 1200.25,-1036 1200.25,-1036 1200.25,-1030 1206.25,-1024 1212.25,-1024 1212.25,-1024 1374.5,-1024 1374.5,-1024 1380.5,-1024 1386.5,-1030 1386.5,-1036 1386.5,-1036 1386.5,-1048 1386.5,-1048 1386.5,-1054 1380.5,-1060 1374.5,-1060"/>
<text text-anchor="middle" x="1293.38" y="-1036.95" font-family="Times New Roman,serif" font-size="14.00">121: detect_credential_access()</text>
</g>
<!-- node_14335198&#45;&gt;node_07d21986 -->
<g id="edge11" class="edge">
<title>node_14335198&#45;&gt;node_07d21986</title>
<path fill="none" stroke="#000000" stroke-width="2" d="M1018.25,-1077.57C1018.25,-1063.49 1018.25,-1046.5 1018.25,-1046.5 1018.25,-1046.5 1186.82,-1046.5 1186.82,-1046.5"/>
<polygon fill="#000000" stroke="#000000" stroke-width="2" points="1186.82,-1050 1196.82,-1046.5 1186.82,-1043 1186.82,-1050"/>
</g>
<!-- node_32b71245 -->
<g id="node11" class="node">
<title>node_32b71245</title>
<path fill="#6db33f" stroke="black" d="M1380.5,-1114C1380.5,-1114 1206.25,-1114 1206.25,-1114 1200.25,-1114 1194.25,-1108 1194.25,-1102 1194.25,-1102 1194.25,-1090 1194.25,-1090 1194.25,-1084 1200.25,-1078 1206.25,-1078 1206.25,-1078 1380.5,-1078 1380.5,-1078 1386.5,-1078 1392.5,-1084 1392.5,-1090 1392.5,-1090 1392.5,-1102 1392.5,-1102 1392.5,-1108 1386.5,-1114 1380.5,-1114"/>
<text text-anchor="middle" x="1293.38" y="-1090.95" font-family="Times New Roman,serif" font-size="14.00">157: detect_group_membership()</text>
</g>
<!-- node_14335198&#45;&gt;node_32b71245 -->
<g id="edge12" class="edge">
<title>node_14335198&#45;&gt;node_32b71245</title>
<path fill="none" stroke="#000000" stroke-width="2" d="M1050.81,-1105C1050.81,-1105 1180.82,-1105 1180.82,-1105"/>
<polygon fill="#000000" stroke="#000000" stroke-width="2" points="1180.82,-1108.5 1190.82,-1105 1180.82,-1101.5 1180.82,-1108.5"/>
</g>
<!-- node_a9f2d851 -->
<g id="node12" class="node">
<title>node_a9f2d851</title>
<path fill="#6db33f" stroke="black" d="M1364.38,-1168C1364.38,-1168 1222.38,-1168 1222.38,-1168 1216.38,-1168 1210.38,-1162 1210.38,-1156 1210.38,-1156 1210.38,-1144 1210.38,-1144 1210.38,-1138 1216.38,-1132 1222.38,-1132 1222.38,-1132 1364.38,-1132 1364.38,-1132 1370.38,-1132 1376.38,-1138 1376.38,-1144 1376.38,-1144 1376.38,-1156 1376.38,-1156 1376.38,-1162 1370.38,-1168 1364.38,-1168"/>
<text text-anchor="middle" x="1293.38" y="-1144.95" font-family="Times New Roman,serif" font-size="14.00">130: detect_object_access()</text>
</g>
<!-- node_14335198&#45;&gt;node_a9f2d851 -->
<g id="edge13" class="edge">
<title>node_14335198&#45;&gt;node_a9f2d851</title>
<path fill="none" stroke="#000000" stroke-width="2" d="M1029.25,-1114.28C1029.25,-1129.95 1029.25,-1150 1029.25,-1150 1029.25,-1150 1197.14,-1150 1197.14,-1150"/>
<polygon fill="#000000" stroke="#000000" stroke-width="2" points="1197.14,-1153.5 1207.14,-1150 1197.14,-1146.5 1197.14,-1153.5"/>
</g>
<!-- node_365627d7 -->
<g id="node13" class="node">
<title>node_365627d7</title>
<path fill="#6db33f" stroke="black" d="M1382.38,-1222C1382.38,-1222 1204.38,-1222 1204.38,-1222 1198.38,-1222 1192.38,-1216 1192.38,-1210 1192.38,-1210 1192.38,-1198 1192.38,-1198 1192.38,-1192 1198.38,-1186 1204.38,-1186 1204.38,-1186 1382.38,-1186 1382.38,-1186 1388.38,-1186 1394.38,-1192 1394.38,-1198 1394.38,-1198 1394.38,-1210 1394.38,-1210 1394.38,-1216 1388.38,-1222 1382.38,-1222"/>
<text text-anchor="middle" x="1293.38" y="-1198.95" font-family="Times New Roman,serif" font-size="14.00">139: detect_permission_changes()</text>
</g>
<!-- node_14335198&#45;&gt;node_365627d7 -->
<g id="edge14" class="edge">
<title>node_14335198&#45;&gt;node_365627d7</title>
<path fill="none" stroke="#000000" stroke-width="2" d="M1007.25,-1114.32C1007.25,-1145.13 1007.25,-1204 1007.25,-1204 1007.25,-1204 1179.07,-1204 1179.07,-1204"/>
<polygon fill="#000000" stroke="#000000" stroke-width="2" points="1179.07,-1207.5 1189.07,-1204 1179.07,-1200.5 1179.07,-1207.5"/>
</g>
<!-- node_912bcf65 -->
<g id="node14" class="node">
<title>node_912bcf65</title>
<path fill="#6db33f" stroke="black" d="M1373.75,-1276C1373.75,-1276 1213,-1276 1213,-1276 1207,-1276 1201,-1270 1201,-1264 1201,-1264 1201,-1252 1201,-1252 1201,-1246 1207,-1240 1213,-1240 1213,-1240 1373.75,-1240 1373.75,-1240 1379.75,-1240 1385.75,-1246 1385.75,-1252 1385.75,-1252 1385.75,-1264 1385.75,-1264 1385.75,-1270 1379.75,-1276 1373.75,-1276"/>
<text text-anchor="middle" x="1293.38" y="-1252.95" font-family="Times New Roman,serif" font-size="14.00">148: detect_privilege_service()</text>
</g>
<!-- node_14335198&#45;&gt;node_912bcf65 -->
<g id="edge15" class="edge">
<title>node_14335198&#45;&gt;node_912bcf65</title>
<path fill="none" stroke="#000000" stroke-width="2" d="M986.25,-1114.27C986.25,-1156.64 986.25,-1258 986.25,-1258 986.25,-1258 1187.78,-1258 1187.78,-1258"/>
<polygon fill="#000000" stroke="#000000" stroke-width="2" points="1187.78,-1261.5 1197.78,-1258 1187.78,-1254.5 1187.78,-1261.5"/>
</g>
<!-- node_9cadad37 -->
<g id="node15" class="node">
<title>node_9cadad37</title>
<path fill="#6db33f" stroke="black" d="M1382.38,-1330C1382.38,-1330 1204.38,-1330 1204.38,-1330 1198.38,-1330 1192.38,-1324 1192.38,-1318 1192.38,-1318 1192.38,-1306 1192.38,-1306 1192.38,-1300 1198.38,-1294 1204.38,-1294 1204.38,-1294 1382.38,-1294 1382.38,-1294 1388.38,-1294 1394.38,-1300 1394.38,-1306 1394.38,-1306 1394.38,-1318 1394.38,-1318 1394.38,-1324 1388.38,-1330 1382.38,-1330"/>
<text text-anchor="middle" x="1293.38" y="-1306.95" font-family="Times New Roman,serif" font-size="14.00">103: detect_process_termination()</text>
</g>
<!-- node_14335198&#45;&gt;node_9cadad37 -->
<g id="edge16" class="edge">
<title>node_14335198&#45;&gt;node_9cadad37</title>
<path fill="none" stroke="#000000" stroke-width="2" d="M964.25,-1114.42C964.25,-1166.65 964.25,-1312 964.25,-1312 964.25,-1312 1178.91,-1312 1178.91,-1312"/>
<polygon fill="#000000" stroke="#000000" stroke-width="2" points="1178.91,-1315.5 1188.91,-1312 1178.91,-1308.5 1178.91,-1315.5"/>
</g>
<!-- node_4d09f0d9 -->
<g id="node16" class="node">
<title>node_4d09f0d9</title>
<path fill="#6db33f" stroke="black" d="M1385.75,-1384C1385.75,-1384 1201,-1384 1201,-1384 1195,-1384 1189,-1378 1189,-1372 1189,-1372 1189,-1360 1189,-1360 1189,-1354 1195,-1348 1201,-1348 1201,-1348 1385.75,-1348 1385.75,-1348 1391.75,-1348 1397.75,-1354 1397.75,-1360 1397.75,-1360 1397.75,-1372 1397.75,-1372 1397.75,-1378 1391.75,-1384 1385.75,-1384"/>
<text text-anchor="middle" x="1293.38" y="-1360.95" font-family="Times New Roman,serif" font-size="14.00">166: detect_sec_grp_membership()</text>
</g>
<!-- node_14335198&#45;&gt;node_4d09f0d9 -->
<g id="edge17" class="edge">
<title>node_14335198&#45;&gt;node_4d09f0d9</title>
<path fill="none" stroke="#000000" stroke-width="2" d="M943.25,-1114.13C943.25,-1174.67 943.25,-1366 943.25,-1366 943.25,-1366 1175.77,-1366 1175.77,-1366"/>
<polygon fill="#000000" stroke="#000000" stroke-width="2" points="1175.77,-1369.5 1185.77,-1366 1175.77,-1362.5 1175.77,-1369.5"/>
</g>
<!-- node_f2d5c3d8 -->
<g id="node17" class="node">
<title>node_f2d5c3d8</title>
<path fill="#6db33f" stroke="black" d="M1404.5,-952C1404.5,-952 1182.25,-952 1182.25,-952 1176.25,-952 1170.25,-946 1170.25,-940 1170.25,-940 1170.25,-928 1170.25,-928 1170.25,-922 1176.25,-916 1182.25,-916 1182.25,-916 1404.5,-916 1404.5,-916 1410.5,-916 1416.5,-922 1416.5,-928 1416.5,-928 1416.5,-940 1416.5,-940 1416.5,-946 1410.5,-952 1404.5,-952"/>
<text text-anchor="middle" x="1293.38" y="-928.95" font-family="Times New Roman,serif" font-size="14.00">112: detect_suspicious_network_activity()</text>
</g>
<!-- node_14335198&#45;&gt;node_f2d5c3d8 -->
<g id="edge18" class="edge">
<title>node_14335198&#45;&gt;node_f2d5c3d8</title>
<path fill="none" stroke="#000000" stroke-width="2" d="M986.25,-1077.73C986.25,-1035.36 986.25,-934 986.25,-934 986.25,-934 1156.76,-934 1156.76,-934"/>
<polygon fill="#000000" stroke="#000000" stroke-width="2" points="1156.76,-937.5 1166.76,-934 1156.76,-930.5 1156.76,-937.5"/>
</g>
<!-- node_f6677c4d -->
<g id="node35" class="node">
<title>node_f6677c4d</title>
<path fill="#6db33f" stroke="black" d="M1400.75,-546C1400.75,-546 1186,-546 1186,-546 1180,-546 1174,-540 1174,-534 1174,-534 1174,-522 1174,-522 1174,-516 1180,-510 1186,-510 1186,-510 1400.75,-510 1400.75,-510 1406.75,-510 1412.75,-516 1412.75,-522 1412.75,-522 1412.75,-534 1412.75,-534 1412.75,-540 1406.75,-546 1400.75,-546"/>
<text text-anchor="middle" x="1293.38" y="-522.95" font-family="Times New Roman,serif" font-size="14.00">79: extract_new_process_creation_logs()</text>
</g>
<!-- node_14335198&#45;&gt;node_f6677c4d -->
<g id="edge19" class="edge">
<title>node_14335198&#45;&gt;node_f6677c4d</title>
<path fill="none" stroke="#000000" stroke-width="2" d="M1051.09,-1087C1074.96,-1087 1096.25,-1087 1096.25,-1087 1096.25,-1087 1096.25,-528 1096.25,-528 1096.25,-528 1160.57,-528 1160.57,-528"/>
<polygon fill="#000000" stroke="#000000" stroke-width="2" points="1160.57,-531.5 1170.57,-528 1160.57,-524.5 1160.57,-531.5"/>
</g>
<!-- node_e0cd92c5 -->
<g id="node18" class="node">
<title>node_e0cd92c5</title>
<path fill="#6db33f" stroke="black" d="M1595.25,-106C1595.25,-106 1494.5,-106 1494.5,-106 1488.5,-106 1482.5,-100 1482.5,-94 1482.5,-94 1482.5,-82 1482.5,-82 1482.5,-76 1488.5,-70 1494.5,-70 1494.5,-70 1595.25,-70 1595.25,-70 1601.25,-70 1607.25,-76 1607.25,-82 1607.25,-82 1607.25,-94 1607.25,-94 1607.25,-100 1601.25,-106 1595.25,-106"/>
<text text-anchor="middle" x="1544.88" y="-82.95" font-family="Times New Roman,serif" font-size="14.00">6: connectWithDb()</text>
</g>
<!-- node_a3c8cdee -->
<g id="node19" class="node">
<title>node_a3c8cdee</title>
<path fill="#cccccc" stroke="black" d="M1332.12,-160C1332.12,-160 1254.62,-160 1254.62,-160 1248.62,-160 1242.62,-154 1242.62,-148 1242.62,-148 1242.62,-136 1242.62,-136 1242.62,-130 1248.62,-124 1254.62,-124 1254.62,-124 1332.12,-124 1332.12,-124 1338.12,-124 1344.12,-130 1344.12,-136 1344.12,-136 1344.12,-148 1344.12,-148 1344.12,-154 1338.12,-160 1332.12,-160"/>
<text text-anchor="middle" x="1293.38" y="-136.95" font-family="Times New Roman,serif" font-size="14.00">22: insertData()</text>
</g>
<!-- node_a3c8cdee&#45;&gt;node_e0cd92c5 -->
<g id="edge20" class="edge">
<title>node_a3c8cdee&#45;&gt;node_e0cd92c5</title>
<path fill="none" stroke="#d55e00" stroke-width="2" d="M1344.35,-142C1417.94,-142 1545.25,-142 1545.25,-142 1545.25,-142 1545.25,-119.31 1545.25,-119.31"/>
<polygon fill="#d55e00" stroke="#d55e00" stroke-width="2" points="1548.75,-119.31 1545.25,-109.31 1541.75,-119.31 1548.75,-119.31"/>
</g>
<!-- node_4ff16ce5 -->
<g id="node20" class="node">
<title>node_4ff16ce5</title>
<path fill="#966f33" stroke="black" d="M1059.62,-52C1059.62,-52 912.38,-52 912.38,-52 906.38,-52 900.38,-46 900.38,-40 900.38,-40 900.38,-28 900.38,-28 900.38,-22 906.38,-16 912.38,-16 912.38,-16 1059.62,-16 1059.62,-16 1065.62,-16 1071.62,-22 1071.62,-28 1071.62,-28 1071.62,-40 1071.62,-40 1071.62,-46 1065.62,-52 1059.62,-52"/>
<text text-anchor="middle" x="986" y="-28.95" font-family="Times New Roman,serif" font-size="14.00">42: retrieveDataMultipleId()</text>
</g>
<!-- node_33a789f3 -->
<g id="node21" class="node">
<title>node_33a789f3</title>
<path fill="#cccccc" stroke="black" d="M1354.62,-52C1354.62,-52 1232.12,-52 1232.12,-52 1226.12,-52 1220.12,-46 1220.12,-40 1220.12,-40 1220.12,-28 1220.12,-28 1220.12,-22 1226.12,-16 1232.12,-16 1232.12,-16 1354.62,-16 1354.62,-16 1360.62,-16 1366.62,-22 1366.62,-28 1366.62,-28 1366.62,-40 1366.62,-40 1366.62,-46 1360.62,-52 1354.62,-52"/>
<text text-anchor="middle" x="1293.38" y="-28.95" font-family="Times New Roman,serif" font-size="14.00">29: retrieveDataOneId()</text>
</g>
<!-- node_4ff16ce5&#45;&gt;node_33a789f3 -->
<g id="edge21" class="edge">
<title>node_4ff16ce5&#45;&gt;node_33a789f3</title>
<path fill="none" stroke="#0072b2" stroke-width="2" d="M1072.03,-34C1072.03,-34 1206.85,-34 1206.85,-34"/>
<polygon fill="#0072b2" stroke="#0072b2" stroke-width="2" points="1206.85,-37.5 1216.85,-34 1206.85,-30.5 1206.85,-37.5"/>
</g>
<!-- node_33a789f3&#45;&gt;node_e0cd92c5 -->
<g id="edge22" class="edge">
<title>node_33a789f3&#45;&gt;node_e0cd92c5</title>
<path fill="none" stroke="#009e73" stroke-width="2" d="M1358.25,-52.42C1358.25,-65.96 1358.25,-82 1358.25,-82 1358.25,-82 1469.19,-82 1469.19,-82"/>
<polygon fill="#009e73" stroke="#009e73" stroke-width="2" points="1469.19,-85.5 1479.19,-82 1469.19,-78.5 1469.19,-85.5"/>
</g>
<!-- node_e867c03a&#45;&gt;node_e0cd92c5 -->
<g id="edge23" class="edge">
<title>node_e867c03a&#45;&gt;node_e0cd92c5</title>
<path fill="none" stroke="#56b4e9" stroke-width="2" d="M1351.07,-94C1351.07,-94 1469.13,-94 1469.13,-94"/>
<polygon fill="#56b4e9" stroke="#56b4e9" stroke-width="2" points="1469.13,-97.5 1479.13,-94 1469.13,-90.5 1469.13,-97.5"/>
</g>
<!-- node_3ece0837&#45;&gt;node_7d957c5d -->
<g id="edge24" class="edge">
<title>node_3ece0837&#45;&gt;node_7d957c5d</title>
<path fill="none" stroke="#cc79a7" stroke-width="2" d="M986.25,-245.42C986.25,-258.96 986.25,-275 986.25,-275 986.25,-275 1208.73,-275 1208.73,-275"/>
<polygon fill="#cc79a7" stroke="#cc79a7" stroke-width="2" points="1208.73,-278.5 1218.73,-275 1208.73,-271.5 1208.73,-278.5"/>
</g>
<!-- node_3ece0837&#45;&gt;node_a3c8cdee -->
<g id="edge26" class="edge">
<title>node_3ece0837&#45;&gt;node_a3c8cdee</title>
<path fill="none" stroke="#cc79a7" stroke-width="2" d="M1087.25,-208.88C1087.25,-181.56 1087.25,-133 1087.25,-133 1087.25,-133 1229.13,-133 1229.13,-133"/>
<polygon fill="#cc79a7" stroke="#cc79a7" stroke-width="2" points="1229.13,-136.5 1239.13,-133 1229.13,-129.5 1229.13,-136.5"/>
</g>
<!-- node_f57f3261 -->
<g id="node36" class="node">
<title>node_f57f3261</title>
<path fill="#6db33f" stroke="black" d="M1380.5,-384C1380.5,-384 1206.25,-384 1206.25,-384 1200.25,-384 1194.25,-378 1194.25,-372 1194.25,-372 1194.25,-360 1194.25,-360 1194.25,-354 1200.25,-348 1206.25,-348 1206.25,-348 1380.5,-348 1380.5,-348 1386.5,-348 1392.5,-354 1392.5,-360 1392.5,-360 1392.5,-372 1392.5,-372 1392.5,-378 1386.5,-384 1380.5,-384"/>
<text text-anchor="middle" x="1293.38" y="-360.95" font-family="Times New Roman,serif" font-size="14.00">124: group_logs_by_date_latest()</text>
</g>
<!-- node_3ece0837&#45;&gt;node_f57f3261 -->
<g id="edge28" class="edge">
<title>node_3ece0837&#45;&gt;node_f57f3261</title>
<path fill="none" stroke="#cc79a7" stroke-width="2" d="M1102.25,-227C1155.2,-227 1206.25,-227 1206.25,-227 1206.25,-227 1206.25,-334.51 1206.25,-334.51"/>
<polygon fill="#cc79a7" stroke="#cc79a7" stroke-width="2" points="1202.75,-334.51 1206.25,-344.51 1209.75,-334.51 1202.75,-334.51"/>
</g>
<!-- node_e974b196 -->
<g id="node31" class="node">
<title>node_e974b196</title>
<path fill="#cccccc" stroke="black" d="M786,-668C786,-668 746,-668 746,-668 740,-668 734,-662 734,-656 734,-656 734,-644 734,-644 734,-638 740,-632 746,-632 746,-632 786,-632 786,-632 792,-632 798,-638 798,-644 798,-644 798,-656 798,-656 798,-662 792,-668 786,-668"/>
<text text-anchor="middle" x="766" y="-644.95" font-family="Times New Roman,serif" font-size="14.00">91: rdp()</text>
</g>
<!-- node_5b8cb523&#45;&gt;node_e974b196 -->
<g id="edge29" class="edge">
<title>node_5b8cb523&#45;&gt;node_e974b196</title>
<path fill="none" stroke="#009e73" stroke-width="2" d="M664.46,-640.5C664.46,-640.5 720.7,-640.5 720.7,-640.5"/>
<polygon fill="#009e73" stroke="#009e73" stroke-width="2" points="720.7,-644 730.7,-640.5 720.7,-637 720.7,-644"/>
</g>
<!-- node_0bc7ffe9 -->
<g id="node25" class="node">
<title>node_0bc7ffe9</title>
<path fill="#cccccc" stroke="black" d="M1060,-631C1060,-631 912,-631 912,-631 906,-631 900,-625 900,-619 900,-619 900,-607 900,-607 900,-601 906,-595 912,-595 912,-595 1060,-595 1060,-595 1066,-595 1072,-601 1072,-607 1072,-607 1072,-619 1072,-619 1072,-625 1066,-631 1060,-631"/>
<text text-anchor="middle" x="986" y="-607.95" font-family="Times New Roman,serif" font-size="14.00">60: detect_rdp_brute_force()</text>
</g>
<!-- node_0bc7ffe9&#45;&gt;node_7d957c5d -->
<g id="edge30" class="edge">
<title>node_0bc7ffe9&#45;&gt;node_7d957c5d</title>
<path fill="none" stroke="#e69f00" stroke-width="2" d="M1072.44,-619C1102.22,-619 1128.25,-619 1128.25,-619 1128.25,-619 1128.25,-287 1128.25,-287 1128.25,-287 1208.88,-287 1208.88,-287"/>
<polygon fill="#e69f00" stroke="#e69f00" stroke-width="2" points="1208.88,-290.5 1218.88,-287 1208.88,-283.5 1208.88,-290.5"/>
</g>
<!-- node_0bc7ffe9&#45;&gt;node_a3c8cdee -->
<g id="edge31" class="edge">
<title>node_0bc7ffe9&#45;&gt;node_a3c8cdee</title>
<path fill="none" stroke="#e69f00" stroke-width="2" d="M1072.15,-607C1096.38,-607 1116.25,-607 1116.25,-607 1116.25,-607 1116.25,-142 1116.25,-142 1116.25,-142 1229.12,-142 1229.12,-142"/>
<polygon fill="#e69f00" stroke="#e69f00" stroke-width="2" points="1229.12,-145.5 1239.12,-142 1229.12,-138.5 1229.12,-145.5"/>
</g>
<!-- node_052f50ae -->
<g id="node27" class="node">
<title>node_052f50ae</title>
<path fill="#6db33f" stroke="black" d="M1372.25,-686C1372.25,-686 1214.5,-686 1214.5,-686 1208.5,-686 1202.5,-680 1202.5,-674 1202.5,-674 1202.5,-662 1202.5,-662 1202.5,-656 1208.5,-650 1214.5,-650 1214.5,-650 1372.25,-650 1372.25,-650 1378.25,-650 1384.25,-656 1384.25,-662 1384.25,-662 1384.25,-674 1384.25,-674 1384.25,-680 1378.25,-686 1372.25,-686"/>
<text text-anchor="middle" x="1293.38" y="-662.95" font-family="Times New Roman,serif" font-size="14.00">122: filter_logs_by_event_id()</text>
</g>
<!-- node_0bc7ffe9&#45;&gt;node_052f50ae -->
<g id="edge32" class="edge">
<title>node_0bc7ffe9&#45;&gt;node_052f50ae</title>
<path fill="none" stroke="#e69f00" stroke-width="2" d="M1063.25,-631.32C1063.25,-642.44 1063.25,-654.5 1063.25,-654.5 1063.25,-654.5 1189.07,-654.5 1189.07,-654.5"/>
<polygon fill="#e69f00" stroke="#e69f00" stroke-width="2" points="1189.07,-658 1199.07,-654.5 1189.07,-651 1189.07,-658"/>
</g>
<!-- node_d1105cb7 -->
<g id="node26" class="node">
<title>node_d1105cb7</title>
<path fill="#6db33f" stroke="black" d="M1383.88,-867C1383.88,-867 1202.88,-867 1202.88,-867 1196.88,-867 1190.88,-861 1190.88,-855 1190.88,-855 1190.88,-843 1190.88,-843 1190.88,-837 1196.88,-831 1202.88,-831 1202.88,-831 1383.88,-831 1383.88,-831 1389.88,-831 1395.88,-837 1395.88,-843 1395.88,-843 1395.88,-855 1395.88,-855 1395.88,-861 1389.88,-867 1383.88,-867"/>
<text text-anchor="middle" x="1293.38" y="-843.95" font-family="Times New Roman,serif" font-size="14.00">159: detect_unusual_login_times()</text>
</g>
<!-- node_e185e2c9 -->
<g id="node28" class="node">
<title>node_e185e2c9</title>
<path fill="#6db33f" stroke="black" d="M1075.75,-759C1075.75,-759 896.25,-759 896.25,-759 890.25,-759 884.25,-753 884.25,-747 884.25,-747 884.25,-735 884.25,-735 884.25,-729 890.25,-723 896.25,-723 896.25,-723 1075.75,-723 1075.75,-723 1081.75,-723 1087.75,-729 1087.75,-735 1087.75,-735 1087.75,-747 1087.75,-747 1087.75,-753 1081.75,-759 1075.75,-759"/>
<text text-anchor="middle" x="986" y="-735.95" font-family="Times New Roman,serif" font-size="14.00">47: filter_logs_down_from_time()</text>
</g>
<!-- node_40b5ded0 -->
<g id="node29" class="node">
<title>node_40b5ded0</title>
<path fill="#cccccc" stroke="black" d="M1043.5,-705C1043.5,-705 928.5,-705 928.5,-705 922.5,-705 916.5,-699 916.5,-693 916.5,-693 916.5,-681 916.5,-681 916.5,-675 922.5,-669 928.5,-669 928.5,-669 1043.5,-669 1043.5,-669 1049.5,-669 1055.5,-675 1055.5,-681 1055.5,-681 1055.5,-693 1055.5,-693 1055.5,-699 1049.5,-705 1043.5,-705"/>
<text text-anchor="middle" x="986" y="-681.95" font-family="Times New Roman,serif" font-size="14.00">54: isRdp_userLogin()</text>
</g>
<!-- node_40b5ded0&#45;&gt;node_052f50ae -->
<g id="edge34" class="edge">
<title>node_40b5ded0&#45;&gt;node_052f50ae</title>
<path fill="none" stroke="#000000" stroke-width="2" d="M1055.75,-677.5C1055.75,-677.5 1189,-677.5 1189,-677.5"/>
<polygon fill="#000000" stroke="#000000" stroke-width="2" points="1189,-681 1199,-677.5 1189,-674 1189,-681"/>
</g>
<!-- node_4e0e4e7d -->
<g id="node30" class="node">
<title>node_4e0e4e7d</title>
<path fill="#966f33" stroke="black" d="M1043.5,-813C1043.5,-813 928.5,-813 928.5,-813 922.5,-813 916.5,-807 916.5,-801 916.5,-801 916.5,-789 916.5,-789 916.5,-783 922.5,-777 928.5,-777 928.5,-777 1043.5,-777 1043.5,-777 1049.5,-777 1055.5,-783 1055.5,-789 1055.5,-789 1055.5,-801 1055.5,-801 1055.5,-807 1049.5,-813 1043.5,-813"/>
<text text-anchor="middle" x="986" y="-789.95" font-family="Times New Roman,serif" font-size="14.00">41: isRdp_userLogin()</text>
</g>
<!-- node_4e0e4e7d&#45;&gt;node_052f50ae -->
<g id="edge33" class="edge">
<title>node_4e0e4e7d&#45;&gt;node_052f50ae</title>
<path fill="none" stroke="#0072b2" stroke-width="2" d="M1055.72,-795C1146.37,-795 1293.25,-795 1293.25,-795 1293.25,-795 1293.25,-699.49 1293.25,-699.49"/>
<polygon fill="#0072b2" stroke="#0072b2" stroke-width="2" points="1296.75,-699.49 1293.25,-689.49 1289.75,-699.49 1296.75,-699.49"/>
</g>
<!-- node_e974b196&#45;&gt;node_0bc7ffe9 -->
<g id="edge35" class="edge">
<title>node_e974b196&#45;&gt;node_0bc7ffe9</title>
<path fill="none" stroke="#d55e00" stroke-width="2" d="M798.28,-641C840.25,-641 908.25,-641 908.25,-641 908.25,-641 908.25,-640.02 908.25,-640.02"/>
<polygon fill="#d55e00" stroke="#d55e00" stroke-width="2" points="911.75,-644.23 908.25,-634.23 904.75,-644.23 911.75,-644.23"/>
</g>
<!-- node_e974b196&#45;&gt;node_052f50ae -->
<g id="edge36" class="edge">
<title>node_e974b196&#45;&gt;node_052f50ae</title>
<path fill="none" stroke="#d55e00" stroke-width="2" d="M798.2,-659C798.2,-659 1189.07,-659 1189.07,-659"/>
<polygon fill="#d55e00" stroke="#d55e00" stroke-width="2" points="1189.07,-662.5 1199.07,-659 1189.07,-655.5 1189.07,-662.5"/>
</g>
<!-- node_e974b196&#45;&gt;node_e185e2c9 -->
<g id="edge37" class="edge">
<title>node_e974b196&#45;&gt;node_e185e2c9</title>
<path fill="none" stroke="#d55e00" stroke-width="2" d="M798.18,-663.5C835.59,-663.5 892.25,-663.5 892.25,-663.5 892.25,-663.5 892.25,-709.61 892.25,-709.61"/>
<polygon fill="#d55e00" stroke="#d55e00" stroke-width="2" points="888.75,-709.61 892.25,-719.61 895.75,-709.61 888.75,-709.61"/>
</g>
<!-- node_e974b196&#45;&gt;node_40b5ded0 -->
<g id="edge38" class="edge">
<title>node_e974b196&#45;&gt;node_40b5ded0</title>
<path fill="none" stroke="#d55e00" stroke-width="2" d="M776.25,-668.5C776.25,-677.75 776.25,-687 776.25,-687 776.25,-687 903.13,-687 903.13,-687"/>
<polygon fill="#d55e00" stroke="#d55e00" stroke-width="2" points="903.13,-690.5 913.13,-687 903.13,-683.5 903.13,-690.5"/>
</g>
<!-- node_66153435 -->
<g id="node32" class="node">
<title>node_66153435</title>
<path fill="#cccccc" stroke="black" d="M1065.62,-867C1065.62,-867 906.38,-867 906.38,-867 900.38,-867 894.38,-861 894.38,-855 894.38,-855 894.38,-843 894.38,-843 894.38,-837 900.38,-831 906.38,-831 906.38,-831 1065.62,-831 1065.62,-831 1071.62,-831 1077.62,-837 1077.62,-843 1077.62,-843 1077.62,-855 1077.62,-855 1077.62,-861 1071.62,-867 1065.62,-867"/>
<text text-anchor="middle" x="986" y="-843.95" font-family="Times New Roman,serif" font-size="14.00">126: user_behavior_anomaly()</text>
</g>
<!-- node_e974b196&#45;&gt;node_66153435 -->
<g id="edge39" class="edge">
<title>node_e974b196&#45;&gt;node_66153435</title>
<path fill="none" stroke="#d55e00" stroke-width="2" d="M755.25,-668.36C755.25,-717.63 755.25,-849 755.25,-849 755.25,-849 881.11,-849 881.11,-849"/>
<polygon fill="#d55e00" stroke="#d55e00" stroke-width="2" points="881.11,-852.5 891.11,-849 881.11,-845.5 881.11,-852.5"/>
</g>
<!-- node_68958abb -->
<g id="node33" class="node">
<title>node_68958abb</title>
<path fill="#6db33f" stroke="black" d="M1388.75,-492C1388.75,-492 1198,-492 1198,-492 1192,-492 1186,-486 1186,-480 1186,-480 1186,-468 1186,-468 1186,-462 1192,-456 1198,-456 1198,-456 1388.75,-456 1388.75,-456 1394.75,-456 1400.75,-462 1400.75,-468 1400.75,-468 1400.75,-480 1400.75,-480 1400.75,-486 1394.75,-492 1388.75,-492"/>
<text text-anchor="middle" x="1293.38" y="-468.95" font-family="Times New Roman,serif" font-size="14.00">23: detect_special_privilege_logon()</text>
</g>
<!-- node_e974b196&#45;&gt;node_68958abb -->
<g id="edge40" class="edge">
<title>node_e974b196&#45;&gt;node_68958abb</title>
<path fill="none" stroke="#d55e00" stroke-width="2" d="M776.25,-631.83C776.25,-586.86 776.25,-474 776.25,-474 776.25,-474 1172.57,-474 1172.57,-474"/>
<polygon fill="#d55e00" stroke="#d55e00" stroke-width="2" points="1172.57,-477.5 1182.57,-474 1172.57,-470.5 1172.57,-477.5"/>
</g>
<!-- node_2594f7bd -->
<g id="node34" class="node">
<title>node_2594f7bd</title>
<path fill="#6db33f" stroke="black" d="M1385.38,-438C1385.38,-438 1201.38,-438 1201.38,-438 1195.38,-438 1189.38,-432 1189.38,-426 1189.38,-426 1189.38,-414 1189.38,-414 1189.38,-408 1195.38,-402 1201.38,-402 1201.38,-402 1385.38,-402 1385.38,-402 1391.38,-402 1397.38,-408 1397.38,-414 1397.38,-414 1397.38,-426 1397.38,-426 1397.38,-432 1391.38,-438 1385.38,-438"/>
<text text-anchor="middle" x="1293.38" y="-414.95" font-family="Times New Roman,serif" font-size="14.00">49: detect_user_account_changed()</text>
</g>
<!-- node_e974b196&#45;&gt;node_2594f7bd -->
<g id="edge41" class="edge">
<title>node_e974b196&#45;&gt;node_2594f7bd</title>
<path fill="none" stroke="#d55e00" stroke-width="2" d="M755.25,-631.57C755.25,-576.99 755.25,-420 755.25,-420 755.25,-420 1175.95,-420 1175.95,-420"/>
<polygon fill="#d55e00" stroke="#d55e00" stroke-width="2" points="1175.95,-423.5 1185.95,-420 1175.95,-416.5 1175.95,-423.5"/>
</g>
<!-- node_66153435&#45;&gt;node_d1105cb7 -->
<g id="edge42" class="edge">
<title>node_66153435&#45;&gt;node_d1105cb7</title>
<path fill="none" stroke="#0072b2" stroke-width="2" d="M1077.81,-849C1077.81,-849 1177.45,-849 1177.45,-849"/>
<polygon fill="#0072b2" stroke="#0072b2" stroke-width="2" points="1177.45,-852.5 1187.45,-849 1177.45,-845.5 1177.45,-852.5"/>
</g>
<!-- node_c47b9aec&#45;&gt;node_7d957c5d -->
<g id="edge43" class="edge">
<title>node_c47b9aec&#45;&gt;node_7d957c5d</title>
<path fill="none" stroke="#f0e442" stroke-width="2" d="M1104.35,-340C1190.9,-340 1293.25,-340 1293.25,-340 1293.25,-340 1293.25,-312.37 1293.25,-312.37"/>
<polygon fill="#f0e442" stroke="#f0e442" stroke-width="2" points="1296.75,-312.37 1293.25,-302.37 1289.75,-312.37 1296.75,-312.37"/>
</g>
<!-- node_c47b9aec&#45;&gt;node_a3c8cdee -->
<g id="edge45" class="edge">
<title>node_c47b9aec&#45;&gt;node_a3c8cdee</title>
<path fill="none" stroke="#f0e442" stroke-width="2" d="M1104.72,-332C1154.15,-332 1200.25,-332 1200.25,-332 1200.25,-332 1200.25,-151 1200.25,-151 1200.25,-151 1229.15,-151 1229.15,-151"/>
<polygon fill="#f0e442" stroke="#f0e442" stroke-width="2" points="1229.15,-154.5 1239.15,-151 1229.15,-147.5 1229.15,-154.5"/>
</g>
<!-- node_c47b9aec&#45;&gt;node_f57f3261 -->
<g id="edge47" class="edge">
<title>node_c47b9aec&#45;&gt;node_f57f3261</title>
<path fill="none" stroke="#f0e442" stroke-width="2" d="M1104.4,-354C1104.4,-354 1180.98,-354 1180.98,-354"/>
<polygon fill="#f0e442" stroke="#f0e442" stroke-width="2" points="1180.98,-357.5 1190.98,-354 1180.98,-350.5 1180.98,-357.5"/>
</g>
</g>
</svg>
